<?xml version="1.0" encoding="utf-8"?>
<!-- Generator: Adobe Illustrator 24.0.0, SVG Export Plug-In . SVG Version: 6.00 Build 0)  -->
<svg version="1.1" id="Layer_1" xmlns="http://www.w3.org/2000/svg" xmlns:xlink="http://www.w3.org/1999/xlink" x="0px" y="0px"
	 viewBox="0 0 547.29 38.38" style="enable-background:new 0 0 547.29 38.38;" xml:space="preserve">
<g>
	<path d="M0,19.17C0,8.66,7.92,0.06,19.26,0.06c6.97,0,10.87,2.64,14.3,6.02l-4.86,5.59c-2.85-2.59-5.28-4.12-9.5-4.12
		c-6.23,0-10.71,5.17-10.71,11.61c0,6.33,4.38,11.61,10.71,11.61c4.22,0,6.81-1.69,9.71-4.33l5.17,5.54
		c-3.8,4.06-8.02,6.28-15.15,6.28C8.08,38.27,0,29.88,0,19.17z"/>
	<path d="M43.75,0.69h16.89c4.7,0,8.34,1.32,10.77,3.75c2.06,2.06,3.17,4.96,3.17,8.55c0,5.96-3.22,9.71-7.92,11.45l9.03,13.19h-9.5
		l-8.02-11.82h-6.28v11.82h-8.13V0.69z M60.11,18.64c3.96,0,6.23-2.11,6.23-5.33c0-3.48-2.43-5.28-6.39-5.28h-8.08v10.61H60.11z"/>
	<path d="M98.14,0.43h7.49l15.83,37.21h-8.5l-3.38-8.29H93.97l-3.38,8.29h-8.29L98.14,0.43z M106.69,22.17l-4.91-11.98l-4.91,11.98
		H106.69z"/>
	<path d="M129.73,0.69h28.13v7.39h-20v7.86h17.63v7.39h-17.63v14.3h-8.13V0.69z"/>
	<path d="M176.32,8.19h-11.24V0.69h30.61v7.49h-11.24v29.45h-8.13V8.19z"/>
	<path d="M239.01,34.05c-3.01,2.48-6.54,4.12-10.82,4.12c-7.07,0-12.4-4.12-12.4-10.77c0-4.7,2.53-8.02,7.18-10.13
		c-1.79-2.53-2.59-4.86-2.59-7.49c0-5.07,4.06-9.71,11.19-9.71c6.28,0,10.4,4.12,10.4,9.39c0,4.96-3.17,7.86-7.76,9.66l4.91,4.91
		c1.21-1.9,2.43-4.06,3.59-6.33l5.96,3.27c-1.42,2.59-3.01,5.33-4.86,7.81l5.44,5.44l-5.96,4.17L239.01,34.05z M234.47,29.41
		l-7.07-7.18c-2.43,1.27-3.43,3.06-3.43,4.96c0,2.59,2.16,4.33,5.17,4.33C230.99,31.52,232.79,30.73,234.47,29.41z M234.9,9.82
		c0-2.11-1.42-3.43-3.48-3.43c-2.16,0-3.59,1.53-3.59,3.85c0,1.64,0.63,2.85,2.16,4.59C233.21,13.62,234.9,12.25,234.9,9.82z"/>
	<path d="M271.02,19.11C271.02,8.6,278.93,0,290.28,0c6.97,0,10.87,2.64,14.3,6.02l-4.86,5.59c-2.85-2.59-5.28-4.12-9.5-4.12
		c-6.23,0-10.71,5.17-10.71,11.61c0,6.33,4.38,11.61,10.71,11.61c4.22,0,6.81-1.69,9.71-4.33l5.17,5.54
		c-3.8,4.06-8.02,6.28-15.15,6.28C279.09,38.21,271.02,29.82,271.02,19.11z"/>
	<path d="M310.62,19.11C310.62,8.6,318.91,0,330.31,0c11.4,0,19.58,8.5,19.58,19.11c0,10.5-8.29,19.11-19.69,19.11
		C318.8,38.21,310.62,29.71,310.62,19.11z M341.39,19.11c0-6.33-4.64-11.61-11.19-11.61c-6.54,0-11.08,5.17-11.08,11.61
		c0,6.33,4.64,11.61,11.19,11.61C336.85,30.72,341.39,25.55,341.39,19.11z"/>
	<path d="M358.02,0.63h7.49l17.31,22.75V0.63h8.02v36.95h-6.91l-17.89-23.49v23.49h-8.02V0.63z"/>
	<path d="M399.79,19.11C399.79,8.6,407.7,0,419.05,0c6.97,0,10.87,2.64,14.3,6.02l-4.86,5.59c-2.85-2.59-5.28-4.12-9.5-4.12
		c-6.23,0-10.71,5.17-10.71,11.61c0,6.33,4.38,11.61,10.71,11.61c4.22,0,6.81-1.69,9.71-4.33l5.17,5.54
		c-3.8,4.06-8.02,6.28-15.15,6.28C407.86,38.21,399.79,29.82,399.79,19.11z"/>
	<path d="M442.48,0.63h27.87v7.23h-19.79v7.49h17.42v7.23h-17.42v7.76h20.06v7.23h-28.13V0.63z"/>
	<path d="M481.96,0.63h15.09c8.81,0,14.14,5.23,14.14,12.88c0,8.55-6.65,12.98-14.94,12.98h-6.17v11.08h-8.13V0.63z M496.52,19.26
		c4.06,0,6.44-2.43,6.44-5.7c0-3.64-2.53-5.59-6.6-5.59h-6.28v11.29H496.52z"/>
	<path d="M527.93,8.13h-11.24V0.63h30.61v7.49h-11.24v29.45h-8.13V8.13z"/>
</g>
</svg>
