<?xml version="1.0" encoding="UTF-8" standalone="no"?>
<svg
   xmlns:dc="http://purl.org/dc/elements/1.1/"
   xmlns:cc="http://creativecommons.org/ns#"
   xmlns:rdf="http://www.w3.org/1999/02/22-rdf-syntax-ns#"
   xmlns:svg="http://www.w3.org/2000/svg"
   xmlns="http://www.w3.org/2000/svg"
   viewBox="0 0 1587.4 1122.52"
   height="1122.52"
   width="1587.4"
   xml:space="preserve"
   id="svg2"
   version="1.1"><metadata
     id="metadata8"><rdf:RDF><cc:Work
         rdf:about=""><dc:format>image/svg+xml</dc:format><dc:type
           rdf:resource="http://purl.org/dc/dcmitype/StillImage" /></cc:Work></rdf:RDF></metadata><defs
     id="defs6"><clipPath
       id="clipPath18"
       clipPathUnits="userSpaceOnUse"><path
         id="path16"
         d="M 0,841.89 H 1190.55 V 0 H 0 Z" /></clipPath></defs><g
     transform="matrix(1.3333333,0,0,-1.3333333,0,1122.52)"
     id="g10"><g
       id="g12"><g
         clip-path="url(#clipPath18)"
         id="g14"><g
           transform="translate(321.4146,455.9217)"
           id="g20"><path
             id="path22"
             style="fill:#1a171b;fill-opacity:1;fill-rule:nonzero;stroke:none"
             d="m 0,0 c 0,10.503 7.916,19.106 19.264,19.106 6.966,0 10.873,-2.639 14.303,-6.017 L 28.712,7.495 c -2.85,2.586 -5.278,4.117 -9.501,4.117 C 12.983,11.612 8.497,6.439 8.497,0 c 0,-6.333 4.381,-11.611 10.714,-11.611 4.223,0 6.809,1.689 9.711,4.328 l 5.173,-5.542 c -3.8,-4.064 -8.023,-6.281 -15.148,-6.281 C 8.075,-19.106 0,-10.714 0,0" /></g><g
           transform="translate(381.5259,456.4498)"
           id="g24"><path
             id="path26"
             style="fill:#1a171b;fill-opacity:1;fill-rule:nonzero;stroke:none"
             d="m 0,0 c 3.959,0 6.228,2.111 6.228,5.331 0,3.483 -2.428,5.277 -6.386,5.277 H -8.233 V 0 Z m -16.362,17.945 h 16.89 c 4.697,0 8.339,-1.32 10.767,-3.748 2.058,-2.058 3.166,-4.961 3.166,-8.55 0,-5.964 -3.219,-9.711 -7.917,-11.453 L 15.57,-19 h -9.5 l -8.023,11.822 h -6.28 V -19 h -8.129 z" /></g><g
           transform="translate(428.1044,452.9134)"
           id="g28"><path
             id="path30"
             style="fill:#1a171b;fill-opacity:1;fill-rule:nonzero;stroke:none"
             d="M 0,0 -4.908,11.981 -9.816,0 Z m -8.55,21.745 h 7.494 L 14.778,-15.464 H 6.281 l -3.378,8.286 h -15.622 l -3.378,-8.286 h -8.286 z" /></g><g
           transform="translate(451.1441,474.3945)"
           id="g32"><path
             id="path34"
             style="fill:#1a171b;fill-opacity:1;fill-rule:nonzero;stroke:none"
             d="M 0,0 H 28.131 V -7.389 H 8.128 v -7.864 h 17.628 v -7.389 H 8.128 V -36.945 H 0 Z" /></g><g
           transform="translate(497.7333,466.8997)"
           id="g36"><path
             id="path38"
             style="fill:#1a171b;fill-opacity:1;fill-rule:nonzero;stroke:none"
             d="M 0,0 H -11.242 V 7.495 H 19.37 V 0 H 8.128 V -29.45 H 0 Z" /></g><g
           transform="translate(556.3116,465.2637)"
           id="g40"><path
             id="path42"
             style="fill:#1a171b;fill-opacity:1;fill-rule:nonzero;stroke:none"
             d="m 0,0 c 0,2.111 -1.425,3.431 -3.484,3.431 -2.164,0 -3.589,-1.531 -3.589,-3.853 0,-1.636 0.634,-2.85 2.164,-4.592 C -1.689,-3.8 0,-2.428 0,0 m -0.422,-19.581 -7.073,7.178 c -2.428,-1.267 -3.43,-3.061 -3.43,-4.961 0,-2.586 2.163,-4.328 5.172,-4.328 1.847,0 3.642,0.791 5.331,2.111 m 4.539,-4.645 c -3.009,-2.48 -6.545,-4.116 -10.82,-4.116 -7.072,0 -12.403,4.116 -12.403,10.767 0,4.697 2.533,8.022 7.178,10.133 -1.795,2.534 -2.586,4.856 -2.586,7.495 0,5.067 4.063,9.711 11.189,9.711 6.281,0 10.397,-4.117 10.397,-9.394 0,-4.962 -3.166,-7.865 -7.758,-9.659 l 4.908,-4.908 c 1.214,1.9 2.428,4.063 3.589,6.333 l 5.964,-3.272 c -1.425,-2.587 -3.008,-5.331 -4.855,-7.811 l 5.436,-5.437 -5.965,-4.169 z" /></g><g
           transform="translate(592.4334,455.982)"
           id="g44"><path
             id="path46"
             style="fill:#1a171b;fill-opacity:1;fill-rule:nonzero;stroke:none"
             d="m 0,0 c 0,10.503 7.916,19.106 19.264,19.106 6.966,0 10.873,-2.639 14.303,-6.017 L 28.712,7.495 c -2.85,2.586 -5.278,4.116 -9.501,4.116 C 12.983,11.611 8.497,6.439 8.497,0 c 0,-6.333 4.381,-11.611 10.714,-11.611 4.223,0 6.809,1.689 9.711,4.327 l 5.173,-5.541 c -3.8,-4.064 -8.023,-6.281 -15.148,-6.281 C 8.075,-19.106 0,-10.714 0,0" /></g><g
           transform="translate(662.8047,455.982)"
           id="g48"><path
             id="path50"
             style="fill:#1a171b;fill-opacity:1;fill-rule:nonzero;stroke:none"
             d="m 0,0 c 0,6.334 -4.644,11.611 -11.189,11.611 -6.544,0 -11.083,-5.172 -11.083,-11.611 0,-6.333 4.644,-11.611 11.189,-11.611 C -4.539,-11.611 0,-6.439 0,0 m -30.769,0 c 0,10.503 8.285,19.106 19.686,19.106 11.4,0 19.581,-8.497 19.581,-19.106 0,-10.503 -8.287,-19.106 -19.687,-19.106 -11.4,0 -19.58,8.498 -19.58,19.106" /></g><g
           transform="translate(679.4365,474.4548)"
           id="g52"><path
             id="path54"
             style="fill:#1a171b;fill-opacity:1;fill-rule:nonzero;stroke:none"
             d="M 0,0 H 7.495 L 24.806,-22.748 V 0 h 8.023 V -36.945 H 25.915 L 8.022,-13.459 V -36.945 H 0 Z" /></g><g
           transform="translate(721.2017,455.982)"
           id="g56"><path
             id="path58"
             style="fill:#1a171b;fill-opacity:1;fill-rule:nonzero;stroke:none"
             d="m 0,0 c 0,10.503 7.916,19.106 19.264,19.106 6.966,0 10.873,-2.639 14.303,-6.017 L 28.712,7.495 c -2.85,2.586 -5.278,4.116 -9.501,4.116 C 12.983,11.611 8.497,6.439 8.497,0 c 0,-6.333 4.381,-11.611 10.714,-11.611 4.223,0 6.809,1.689 9.711,4.327 l 5.173,-5.541 c -3.8,-4.064 -8.023,-6.281 -15.148,-6.281 C 8.075,-19.106 0,-10.714 0,0" /></g><g
           transform="translate(763.8961,474.4548)"
           id="g60"><path
             id="path62"
             style="fill:#1a171b;fill-opacity:1;fill-rule:nonzero;stroke:none"
             d="M 0,0 H 27.867 V -7.231 H 8.075 v -7.494 h 17.417 v -7.231 H 8.075 v -7.759 h 20.056 v -7.23 H 0 Z" /></g><g
           transform="translate(817.9396,455.8238)"
           id="g64"><path
             id="path66"
             style="fill:#1a171b;fill-opacity:1;fill-rule:nonzero;stroke:none"
             d="m 0,0 c 4.064,0 6.439,2.428 6.439,5.7 0,3.642 -2.533,5.595 -6.597,5.595 H -6.439 V 0 Z M -14.567,18.631 H 0.528 c 8.814,0 14.145,-5.225 14.145,-12.878 0,-8.55 -6.65,-12.984 -14.937,-12.984 h -6.175 v -11.083 h -8.128 z" /></g><g
           transform="translate(849.3398,466.96)"
           id="g68"><path
             id="path70"
             style="fill:#1a171b;fill-opacity:1;fill-rule:nonzero;stroke:none"
             d="M 0,0 H -11.242 V 7.495 H 19.37 V 0 H 8.128 V -29.451 H 0 Z" /></g></g></g></g></svg>