<?xml version="1.0" encoding="utf-8"?>
<!-- Generator: Adobe Illustrator 24.0.0, SVG Export Plug-In . SVG Version: 6.00 Build 0)  -->
<svg version="1.1" id="Layer_1" xmlns="http://www.w3.org/2000/svg" xmlns:xlink="http://www.w3.org/1999/xlink" x="0px" y="0px"
	 viewBox="0 0 216 216" style="enable-background:new 0 0 216 216;" xml:space="preserve">
<path d="M170.86,61.6c4.07,0,7.43-1.56,10.29-3.91l4.06,4.11l5.67-3.96l-5.17-5.17c1.76-2.36,3.26-4.97,4.62-7.43l-5.67-3.11
	c-1.1,2.16-2.26,4.22-3.41,6.02l-4.67-4.67c4.37-1.71,7.38-4.47,7.38-9.18c0-5.02-3.91-8.93-9.89-8.93
	c-6.77,0-10.64,4.42-10.64,9.23c0,2.51,0.75,4.72,2.46,7.13c-4.42,2.01-6.82,5.17-6.82,9.64C159.06,57.69,164.13,61.6,170.86,61.6z
	 M173.92,31.39c1.96,0,3.31,1.25,3.31,3.26c0,2.31-1.61,3.61-4.67,4.77c-1.46-1.66-2.06-2.81-2.06-4.37
	C170.51,32.85,171.86,31.39,173.92,31.39z M170.1,46.45l6.72,6.82c-1.61,1.26-3.31,2.01-5.07,2.01c-2.86,0-4.92-1.66-4.92-4.11
	C166.84,49.36,167.8,47.65,170.1,46.45z M0,0l216,216V0H0z M208.88,198.81L17.19,7.12h191.7V198.81z M108.15,61.7
	c6.77,0,10.79-2.11,14.4-5.97l-4.92-5.27c-2.76,2.51-5.22,4.11-9.23,4.11c-6.02,0-10.19-5.02-10.19-11.04
	c0-6.12,4.27-11.04,10.19-11.04c4.01,0,6.32,1.45,9.03,3.91l4.62-5.32c-3.26-3.21-6.98-5.72-13.6-5.72
	c-10.79,0-18.32,8.18-18.32,18.17C90.13,53.72,97.81,61.7,108.15,61.7z M175.62,133.08c6.77,0,10.79-2.11,14.4-5.97l-4.92-5.27
	c-2.76,2.51-5.22,4.11-9.23,4.11c-6.02,0-10.19-5.02-10.19-11.04c0-6.12,4.27-11.04,10.19-11.04c4.01,0,6.32,1.45,9.03,3.91
	l4.62-5.32c-3.26-3.21-6.98-5.72-13.6-5.72c-10.79,0-18.32,8.18-18.32,18.17C157.61,125.1,165.29,133.08,175.62,133.08z"/>
</svg>
